M48
;Layer_Color=9474304
;FILE_FORMAT=4:4
METRIC,LZ
;TYPE=PLATED
T1F00S00C0.3000
T3F00S00C1.0000
T4F00S00C1.1000
T5F00S00C1.5000
T6F00S00C3.2000
;TYPE=NON_PLATED
T7F00S00C3.2000
%
T01
X00389Y0005475
X0047975Y0011375
X00496Y000995
X0048075Y0017075
X0045425Y0015525
X006255Y00164
X00636Y00189
X0067375Y001985
X00677Y00164
X00662343Y00155758
X0067925Y0011375
X00589Y0028
X00375Y00267
X00328325Y00250675
X00293971Y00223279
X00303197Y00196947
X00304Y0017075
X0024875Y001705
X00261Y00146
X0020025Y0013975
X00207Y0017625
X0019875Y0019
X00182Y0020625
X00169982Y00209244
X001625Y0020075
X001435Y0019
X00135Y0017475
X001365Y001595
X0015775Y0016
X0017625Y00169149
X0011325Y001935
Y00216
X00111Y0025025
X0006925Y0026525
X00034066Y0026
X000085Y00276
X0006025Y00297
X000595Y00226
Y0021875
X0006125Y00138
X00067Y001325
X0000725Y0013725
X00008Y00081
X00173Y00071
X00201Y000715
X00291Y00094
X00234Y00199
X0020125Y0025675
X0021875Y0028978
X0023975Y0028725
X00257Y00287
X00182Y00295
X00076Y0030975
X0005225Y0043525
X00032965Y00443355
X000545Y0052125
X00190671Y00453088
X002025Y004345
X002085Y004005
X0017025Y0041675
X00228232Y0048075
X002475Y0049475
X00303Y00481
X00308Y00435
X00317Y00427
X00274Y00331
X00556Y004285
X00589904Y00426096
X00591Y00435
X00587Y00414
X00628Y00451
T03
X00609104Y00262234
X00674104
X0031225Y002445
X0026725
Y003095
X0031225
X00609104Y00307234
X00674104
T04
X003302Y000254
X003556
X00381
X004064
X004318
X004572
X00508
X005334
X005588
X005842
X006096
X00635
X0062065Y0012573
X0059525
X0056985
X0054445
X0051905
X0049365
X0046825
X0044285
X0041745
X0039205
X0036665
X0034125
Y0020193
X0036665
X0039205
X0041745
X0044285
X0046825
X0049365
X0051905
X0054445
X0056985
X0059525
X0062065
X0031585
X0029045
Y0012573
X0031585
X003048Y000254
X002794
X0007112Y0001524
X0004572
X0002032
X000254Y003166
X000508
Y00342
X000254
Y0038608
X000508
Y0041148
X000254
X000762
Y0038608
X00146Y003952
Y004206
Y00446
Y003698
X000762Y0047244
X000508
X000254
Y0049784
X000508
X000762
X0018796Y00508
X0021336
X0023876
X0026416
X0028956
X0031496
X0034036
X0036576
X0039116
X0041656
X004572
X004826
X00508
X005334
X005588
X005842
X006096
X00635
X00662Y00469
Y004436
Y004182
T05
X0020066Y0002286
X0024384Y0002032
T06
X006604Y000762
X001397Y000254
X006604Y003556
T07
X001524Y00508
M30
